PathFileType	4	(X/Y/Z)	/Users/itak/Documents/Research/Walk-IL/dataset/trc/00210_00009.trc
DataRate	CameraRate	NumFrames	NumMarkers	Units	OrigDataRate	OrigDataStartFrame	OrigNumFrames
100.000000	100.000000	4	53	mm	100.000000	477	637
Frame#	Time	RPSI			LPSI			L3			STRN			T10			C7			CLAV			RBAK			LBAK			LSHO			LUPA			LAEL			LAOL			LWTS			LWPS			LFRA			LIFD			LHPS			LHTS			RSHO			RUPA			RAEL			RAOL			RWTS			RWPS			RFRA			RIFD			RHTS			RHPS			RBHD			LFHD			RFHD			LBHD			LHIP			RHIP			RASI			LASI			LKNE			LTHI			LANK			LTIP			LTOE			LMT5			LHEE			RKNE			RTHI			RANK			RTIP			RTOE			RMT1			RMT5			RHEE			LMT1			
		X1	Y1	Z1	X2	Y2	Z2	X3	Y3	Z3	X4	Y4	Z4	X5	Y5	Z5	X6	Y6	Z6	X7	Y7	Z7	X8	Y8	Z8	X9	Y9	Z9	X10	Y10	Z10	X11	Y11	Z11	X12	Y12	Z12	X13	Y13	Z13	X14	Y14	Z14	X15	Y15	Z15	X16	Y16	Z16	X17	Y17	Z17	X18	Y18	Z18	X19	Y19	Z19	X20	Y20	Z20	X21	Y21	Z21	X22	Y22	Z22	X23	Y23	Z23	X24	Y24	Z24	X25	Y25	Z25	X26	Y26	Z26	X27	Y27	Z27	X28	Y28	Z28	X29	Y29	Z29	X30	Y30	Z30	X31	Y31	Z31	X32	Y32	Z32	X33	Y33	Z33	X34	Y34	Z34	X35	Y35	Z35	X36	Y36	Z36	X37	Y37	Z37	X38	Y38	Z38	X39	Y39	Z39	X40	Y40	Z40	X41	Y41	Z41	X42	Y42	Z42	X43	Y43	Z43	X44	Y44	Z44	X45	Y45	Z45	X46	Y46	Z46	X47	Y47	Z47	X48	Y48	Z48	X49	Y49	Z49	X50	Y50	Z50	X51	Y51	Z51	X52	Y52	Z52	X53	Y53	Z53	

478	4.77	448.0148315429688	1039.129638671875	-173.2598114013672	447.8302917480469	1040.248291015625	-293.7831115722656	442.2737731933594	1117.4365234375	-248.1991271972656	684.044189453125	1313.71533203125	-257.1772155761719	431.7360229492188	1244.294311523438	-236.9488067626953	486.6513061523438	1508.271362304688	-237.7878875732422	655.3173217773438	1430.38525390625	-252.3631744384766	421.5412292480469	1365.497192382812	-161.4484100341797	459.0326232910156	1473.189819335938	-346.93115234375	544.5487670898438	1481.3818359375	-410.3626403808594	506.6093444824219	1365.576782226562	-488.6688232421875	508.3670654296875	1161.347900390625	-533.2730102539062	446.7580261230469	1139.820922851562	-472.7735290527344	620.1661376953125	932.6185913085938	-517.6837158203125	577.05126953125	918.769775390625	-588.4158325195312	530.0642700195312	1056.92431640625	-559.9617919921875	639.6951293945312	738.6470947265625	-547.2799682617188	600.6417846679688	832.7872314453125	-596.3978271484375	654.2816162109375	836.6412353515625	-554.5364379882812	560.1463623046875	1467.782836914062	-75.82207489013672	550.4966430664062	1402.3369140625	-7.909154415130615	558.8848876953125	1120.14892578125	30.55470275878906	520.1825561523438	1110.896484375	-54.30176162719727	716.1323852539062	924.4808349609375	-29.55407333374023	673.6541748046875	903.4364013671875	39.93168258666992	595.6693115234375	1055.048217773438	40.01480484008789	759.6826171875	733.5051879882812	-35.85488510131836	773.0330810546875	809.9467163085938	-20.28767776489258	727.2784423828125	802.9414672851562	35.79073715209961	518.0521240234375	1657.511596679688	-190.3876190185547	709.4332885742188	1726.130493164062	-292.2456665039062	713.1027221679688	1723.4619140625	-192.1991729736328	556.5048217773438	1671.992431640625	-324.4520263671875	549.7256469726562	977.0890502929688	-433.8713989257812	550.8457641601562	1002.233703613281	-66.01822662353516	643.0138549804688	1045.502197265625	-105.4032669067383	649.31103515625	1024.424072265625	-386.8232421875	670.1098022460938	500.283447265625	-416.5522766113281	642.6845703125	643.4264526367188	-433.7539672851562	332.5111083984375	136.8661804199219	-411.861572265625	508.1858520507812	334.2809753417969	-424.3074035644531	519.14404296875	52.23708343505859	-352.7592468261719	436.3857727050781	66.61783599853516	-422.2102966308594	288.2295837402344	184.5123901367188	-364.1672668457031	627.296875	513.7217407226562	-121.6012496948242	623.2092895507812	781.1876220703125	-66.00910186767578	569.8702392578125	29.94328308105469	-167.5113372802734	640.5244140625	395.0479431152344	-148.0266723632812	781.267578125	36.73382949829102	-218.2427368164062	722.2338256835938	35.47258377075195	-257.5415344238281	679.4136962890625	30.6314868927002	-143.7749328613281	506.0010070800781	30.79181480407715	-226.2224884033203	460.3860473632812	83.19681549072266	-312.5153198242188	
479	4.78	451.1880493164062	1039.494140625	-173.0415344238281	450.9334106445312	1040.75830078125	-293.5596923828125	445.52490234375	1117.915161132812	-247.7464447021484	687.5653686523438	1313.982299804688	-256.6943969726562	435.1181945800781	1244.582275390625	-236.1338195800781	490.2962341308594	1508.614624023438	-237.0749053955078	658.8739013671875	1430.659057617188	-251.9270172119141	425.2709045410156	1365.954345703125	-160.5294036865234	462.3671569824219	1473.411987304688	-346.1206665039062	547.7864990234375	1481.529174804688	-409.7201232910156	509.8301696777344	1365.615112304688	-487.8173828125	512.1832275390625	1161.234252929688	-531.9985961914062	450.4847717285156	1139.591796875	-471.6524963378906	626.6619262695312	934.1609497070312	-514.814697265625	584.02587890625	919.1903076171875	-585.6326293945312	535.124755859375	1056.901611328125	-558.131591796875	649.4446411132812	740.3939208984375	-543.0984497070312	608.9957275390625	833.5093383789062	-592.9563598632812	662.4103393554688	838.5447998046875	-550.9154663085938	564.1060791015625	1468.251220703125	-75.23371124267578	554.5946655273438	1402.852783203125	-7.284224987030029	563.1736450195312	1120.685668945312	31.36299133300781	524.0720825195312	1111.360961914062	-53.43212890625	720.5424194335938	925.2944946289062	-29.26848983764648	678.2991943359375	904.1388549804688	40.33373260498047	600.0557250976562	1055.614624023438	40.70794677734375	764.4315185546875	734.3966674804688	-35.8023681640625	777.6563110351562	810.85009765625	-20.24652099609375	732.0715942382812	803.7330932617188	35.97383499145508	521.9632568359375	1658.042358398438	-189.8444213867188	713.3145751953125	1726.177734375	-292.1099853515625	717.168212890625	1723.59326171875	-192.0628509521484	560.1964111328125	1672.339477539062	-323.983642578125	552.8250122070312	977.8074340820312	-433.7950439453125	554.5606079101562	1002.219604492188	-65.73023223876953	646.1556396484375	1045.489379882812	-105.0322570800781	652.3942260742188	1024.897827148438	-386.4933776855469	675.5875244140625	501.314697265625	-416.1009216308594	646.9696044921875	644.2879638671875	-433.4771728515625	345.0393981933594	131.6523895263672	-410.5610656738281	516.2860717773438	332.52490234375	-423.3455505371094	534.6968383789062	52.40777587890625	-354.0237426757812	450.9209899902344	64.91150665283203	-422.6068725585938	299.6358947753906	177.5093841552734	-362.0790405273438	628.2720947265625	513.4898071289062	-121.4823532104492	625.5042724609375	781.1063842773438	-66.17584991455078	569.8785400390625	30.02704811096191	-167.5848388671875	641.2290649414062	394.8696899414062	-147.9711456298828	781.345458984375	36.68729782104492	-218.1603088378906	722.283203125	35.4714469909668	-257.58984375	679.4567260742188	30.67807388305664	-143.8405609130859	506.0411376953125	30.89276313781738	-226.3018798828125	475.5615539550781	81.16402435302734	-313.0690307617188	
480	4.79	454.3501892089844	1039.839721679688	-172.8348693847656	454.0022888183594	1041.263305664062	-293.3497009277344	448.7538146972656	1118.346435546875	-247.3295745849609	691.0359497070312	1314.239013671875	-256.2333374023438	438.4926147460938	1244.847290039062	-235.3702087402344	493.8600769042969	1508.934326171875	-236.4097290039062	662.3656005859375	1430.91650390625	-251.5167999267578	428.9241027832031	1366.375366210938	-159.6839599609375	465.6559448242188	1473.597534179688	-345.3612365722656	550.958984375	1481.639404296875	-409.1180114746094	512.9844360351562	1365.613891601562	-487.00146484375	515.8946533203125	1161.07958984375	-530.7379150390625	454.1378784179688	1139.323120117188	-470.52294921875	633.0374145507812	935.7234497070312	-511.98681640625	590.9172973632812	919.6360473632812	-582.8668212890625	540.08935546875	1056.868041992188	-556.3135375976562	659.1694946289062	742.2496337890625	-538.9502563476562	617.283935546875	834.283203125	-589.5261840820312	670.4752807617188	840.52978515625	-547.3441162109375	567.9649658203125	1468.686889648438	-74.68793487548828	558.5612182617188	1403.337036132812	-6.710078239440918	567.3046264648438	1121.212036132812	32.21701431274414	527.7401123046875	1111.807006835938	-52.53370666503906	724.7203979492188	926.0755004882812	-29.01925086975098	682.7568359375	904.8145751953125	40.72751998901367	604.2538452148438	1056.161743164062	41.42566680908203	768.9170532226562	735.2542114257812	-35.82245635986328	782.0447387695312	811.7192993164062	-20.2735481262207	736.6498413085938	804.4912109375	36.10735321044922	525.787353515625	1658.561767578125	-189.3418426513672	717.09912109375	1726.221801757812	-292.0095520019531	721.1343994140625	1723.726806640625	-191.9656829833984	563.7944946289062	1672.6748046875	-323.5526733398438	555.8927001953125	978.5199584960938	-433.7337341308594	558.1029052734375	1002.208435058594	-65.49665832519531	649.3012084960938	1045.458618164062	-104.6994934082031	655.4369506835938	1025.357421875	-386.1907348632812	680.7457275390625	502.2897033691406	-415.6959838867188	651.046142578125	645.1251220703125	-433.2881469726562	357.6944580078125	126.2578277587891	-409.17041015625	524.2786254882812	330.6152648925781	-422.3804931640625	550.3150024414062	52.59579849243164	-355.4505004882812	465.4512023925781	63.17695617675781	-423.0676574707031	311.259521484375	170.2671203613281	-359.8700866699219	629.153564453125	513.2559814453125	-121.3785171508789	627.7935791015625	781.0087890625	-66.38693237304688	569.8981323242188	30.10982894897461	-167.6611022949219	641.8272705078125	394.6929931640625	-147.931396484375	781.4110717773438	36.63014221191406	-218.0570068359375	722.3286743164062	35.46531295776367	-257.6433410644531	679.5020141601562	30.72507476806641	-143.9138488769531	506.0864562988281	30.98661041259766	-226.3744506835938	490.8030090332031	78.92273712158203	-313.6711730957031	
481	4.8	457.5031127929688	1040.164916992188	-172.6365203857422	457.0343017578125	1041.759033203125	-293.1463012695312	451.9557800292969	1118.732543945312	-246.9435577392578	694.4495239257812	1314.4794921875	-255.7984161376953	441.8579711914062	1245.099365234375	-234.6479187011719	497.3448791503906	1509.231689453125	-235.7935485839844	665.791748046875	1431.152954101562	-251.1348266601562	432.4972229003906	1366.762939453125	-158.9044494628906	468.898193359375	1473.751586914062	-344.6543884277344	554.06689453125	1481.713989257812	-408.5571594238281	516.076416015625	1365.570556640625	-486.2210998535156	519.5111694335938	1160.882446289062	-529.4917602539062	457.73046875	1139.011108398438	-469.3818054199219	639.27587890625	937.2782592773438	-509.2161865234375	597.7094116210938	920.1046752929688	-580.1354370117188	544.9578857421875	1056.822875976562	-554.5130615234375	668.8175048828125	744.1803588867188	-534.8709106445312	625.4747924804688	835.10400390625	-586.136962890625	678.4472045898438	842.576416015625	-543.8575439453125	571.7264404296875	1469.089477539062	-74.18401336669922	562.4015502929688	1403.78857421875	-6.183659553527832	571.2659912109375	1121.725341796875	33.10726547241211	531.2017211914062	1112.231811523438	-51.60660552978516	728.6690673828125	926.821533203125	-28.79549026489258	687.017578125	905.4594116210938	41.11648941040039	608.260009765625	1056.6865234375	42.16606521606445	773.1443481445312	736.0769653320312	-35.89717102050781	786.2073364257812	812.5547485351562	-20.34590530395508	741.0109252929688	805.214111328125	36.20427322387695	529.5297241210938	1659.062866210938	-188.8791961669922	720.7866821289062	1726.265747070312	-291.9396362304688	725.0006103515625	1723.861083984375	-191.9038391113281	567.301513671875	1672.995361328125	-323.1573791503906	558.927734375	979.2257080078125	-433.6841735839844	561.4781494140625	1002.20263671875	-65.31324005126953	652.4534301757812	1045.41064453125	-104.4091262817383	658.429443359375	1025.8046875	-385.920166015625	685.6001586914062	503.2095031738281	-415.3149108886719	654.9207763671875	645.9276733398438	-433.1698303222656	370.4263305664062	120.7544784545898	-407.746337890625	532.1565551757812	328.6066284179688	-421.4356994628906	565.904541015625	52.82038116455078	-356.9976196289062	479.9213562011719	61.44826126098633	-423.590576171875	323.0697631835938	162.8954315185547	-357.62451171875	629.970703125	513.0228881835938	-121.2958221435547	630.0950317382812	780.8921508789062	-66.64152526855469	569.9301147460938	30.19234466552734	-167.7383117675781	642.3339233398438	394.5209350585938	-147.9142761230469	781.46484375	36.5592041015625	-217.9368896484375	722.3726806640625	35.4559211730957	-257.7018432617188	679.5475463867188	30.77482795715332	-143.996826171875	506.1351318359375	31.07228088378906	-226.4408874511719	505.993408203125	76.50126647949219	-314.2947998046875	
